<svg xmlns="http://www.w3.org/2000/svg" width="26" height="26">
    <path fill="#B0B0B1" fill-rule="evenodd" d="M13 26C5.832 26 0 20.168 0 13S5.832 0 13 0s13 5.832 13 13-5.832 13-13 13zm0-24.513C6.652 1.487 1.487 6.652 1.487 13S6.652 24.512 13 24.512 24.513 19.348 24.513 13c0-6.348-5.165-11.513-11.513-11.513zm1.065 15.039h1.497a.743.743 0 1 1 0 1.487h-1.497c-2.41 0-4.37-1.96-4.37-4.37V8.731a.744.744 0 1 1 1.487 0v.755h4.38a.744.744 0 0 1 0 1.488h-4.38v2.669a2.886 2.886 0 0 0 2.883 2.883z"/>
</svg>
