<svg xmlns="http://www.w3.org/2000/svg" width="26" height="26">
    <path fill="#B0B0B1" fill-rule="evenodd" d="M13 26C5.832 26 0 20.168 0 13S5.832 0 13 0s13 5.832 13 13-5.832 13-13 13zm0-24.513C6.652 1.487 1.487 6.652 1.487 13S6.652 24.512 13 24.512 24.513 19.348 24.513 13c0-6.348-5.165-11.513-11.513-11.513zm4.734 17.875H8.266c-.866 0-1.57-.704-1.57-1.57V8.207c0-.865.704-1.57 1.57-1.57h9.468c.866 0 1.57.705 1.57 1.57v9.585c0 .866-.704 1.57-1.57 1.57zm.083-11.155a.083.083 0 0 0-.083-.082H8.266a.083.083 0 0 0-.083.082v9.585c0 .046.037.083.083.083h9.468a.083.083 0 0 0 .083-.083V8.207zm-8.69 4.222h1.198l-.004 1.193a2.68 2.68 0 0 0 5.358 0l.006-1.193h1.188v4.442H9.127v-4.442zm6.043-3.19h1.703v1.563H15.17V9.239zM13 15.309a1.68 1.68 0 1 1 0-3.359 1.68 1.68 0 0 1 0 3.359z"/>
</svg>
