<svg xmlns="http://www.w3.org/2000/svg" width="26" height="26">
    <path fill="#B0B0B1" fill-rule="evenodd" d="M13 26C5.832 26 0 20.168 0 13S5.832 0 13 0s13 5.832 13 13-5.832 13-13 13zm0-24.513C6.652 1.487 1.487 6.652 1.487 13S6.652 24.512 13 24.512 24.513 19.348 24.513 13c0-6.348-5.165-11.513-11.513-11.513zm3.011 5.946h-1.763a1.13 1.13 0 0 0-1.129 1.129v1.983h2.541a.744.744 0 0 1 0 1.488h-2.541v6.885a.744.744 0 1 1-1.488 0v-6.885H9.989a.744.744 0 1 1 0-1.488h1.642V8.562a2.62 2.62 0 0 1 2.617-2.617h1.763a.743.743 0 0 1 0 1.488z"/>
</svg>
