<svg xmlns="http://www.w3.org/2000/svg" width="26" height="26">
    <path fill="#B0B0B1" fill-rule="evenodd" d="M13 26C5.832 26 0 20.168 0 13S5.832 0 13 0s13 5.832 13 13-5.832 13-13 13zm0-24.513C6.652 1.487 1.487 6.652 1.487 13S6.652 24.512 13 24.512 24.513 19.348 24.513 13c0-6.348-5.165-11.513-11.513-11.513zm.621 15.618a6.657 6.657 0 0 1-2.09-.343l-.71 3.373a.744.744 0 0 1-1.456-.307l1.983-9.42a.744.744 0 0 1 1.456.307l-.964 4.579c1.944.711 4.006.225 5.14-1.256 1.468-1.918.876-4.844-1.318-6.524-2.195-1.68-5.174-1.486-6.642.431-1.1 1.437-1.067 3.536.082 5.223a.743.743 0 1 1-1.229.837c-1.511-2.218-1.524-5.017-.034-6.964 1.966-2.569 5.881-2.886 8.727-.708s3.561 6.04 1.595 8.609c-1.078 1.409-2.753 2.163-4.54 2.163z"/>
</svg>
