<svg xmlns="http://www.w3.org/2000/svg" width="19" height="15">
    <path fill="#FFBC00" fill-rule="evenodd" d="M17.613 2.227H1.876A1.126 1.126 0 0 1 .744 1.113C.744.501 1.253 0 1.876 0h15.737c.623 0 1.133.501 1.133 1.113 0 .613-.51 1.114-1.133 1.114zM6.094 8.613A1.127 1.127 0 0 1 4.961 7.5c0-.612.51-1.113 1.133-1.113h7.302c.623 0 1.132.501 1.132 1.113s-.509 1.113-1.132 1.113H6.094zm-4.218 4.16h15.737c.623 0 1.133.501 1.133 1.114 0 .612-.51 1.113-1.133 1.113H1.876a1.126 1.126 0 0 1-1.132-1.113c0-.613.509-1.114 1.132-1.114z"/>
</svg>
