<svg xmlns="http://www.w3.org/2000/svg" width="26" height="26">
    <path fill="#B0B0B1" fill-rule="evenodd" d="M13 24.893c-1.269 0-2.538-.179-3.774-.533l-7.069 1.625a.59.59 0 0 1-.58-.185.537.537 0 0 1-.082-.58l2.007-4.273C1.241 18.631 0 15.627 0 12.447 0 5.584 5.832 0 13 0s13 5.584 13 12.447c0 6.863-5.832 12.446-13 12.446zm0-23.787c-6.531 0-11.844 5.088-11.844 11.341 0 3.014 1.222 5.854 3.443 7.997a.536.536 0 0 1 .117.616l-1.684 3.586 6.078-1.397a.626.626 0 0 1 .123-.014v-.006a.62.62 0 0 1 .224.042c1.16.342 2.352.516 3.543.516 6.531 0 11.844-5.087 11.844-11.34S19.531 1.106 13 1.106zm3.939 18.243a.592.592 0 0 1-.408.162c-.024 0-.048-.002-.072-.004-.112-.014-2.785-.372-6.757-4.18-3.976-3.807-4.356-6.36-4.37-6.467a.538.538 0 0 1 .164-.461l2.658-2.545c.218-.208.508-.324.816-.324.308 0 .598.116.816.324l2.86 2.739a1.077 1.077 0 0 1 0 1.567l-.816.782 2.452 2.344.817-.782c.219-.209.508-.324.817-.324.306 0 .595.113.816.319l.005.005 2.852 2.736a1.067 1.067 0 0 1 0 1.571l-2.65 2.538zm1.834-3.325l-2.85-2.734c-.003-.003-.005-.004-.007-.004l-1.225 1.173a.596.596 0 0 1-.817 0l-3.27-3.126a.54.54 0 0 1 0-.782l1.225-1.173-2.86-2.741-2.43 2.328c.201.682 1.012 2.738 3.981 5.58 2.995 2.872 5.116 3.625 5.824 3.808l2.429-2.325.002-.002a.002.002 0 0 0-.002-.002z"/>
</svg>
